# xmcd
#
# Track frame offsets:
#       150
#       14832
#       34153
#       47663
#       68238
#       82974
#       105116
#       125099
#       138064
#       155300
#       172617
#       192880
#       213376
#
# Disc length: 3113 seconds
#
# Revision: 1
# Processed by: cddbd v1.4PL0 Copyright (c) Steve Scherf et al.
# Submitted via: MusiCat 1.1
#
DISCID=a10c270d
DTITLE=The Jon Spencer Blues Explosion - Plastic Fang
DYEAR=2002
DGENRE=
TTITLE0=Sweet n Sour
TTITLE1=She Said
TTITLE2=Money Rock 'n'Roll
TTITLE3=Killer Wolf
TTITLE4=Tore Up and Broke
TTITLE5=Hold On
TTITLE6=Down in the Beast
TTITLE7=Shakin' rock 'n'roll tonight
TTITLE8=The Midnight Creep
TTITLE9=Over and Over
TTITLE10=Mother Nature
TTITLE11=Mean Heart
TTITLE12=Bonus Track
EXTD=2002\n\n\nsubmitted by Stamppot
EXTT0=
EXTT1=
EXTT2=
EXTT3=
EXTT4=
EXTT5=
EXTT6=
EXTT7=
EXTT8=
EXTT9=
EXTT10=
EXTT11=
EXTT12=
PLAYORDER=
